<?xml version="1.0" encoding="UTF-8" standalone="no"?>
<!-- Created with Inkscape (http://www.inkscape.org/) -->

<svg
   sodipodi:docname="Logo.svg"
   id="svg5"
   version="1.1"
   viewBox="0 0 297 111"
   height="111mm"
   width="297mm"
   inkscape:version="1.2.2 (732a01da63, 2022-12-09)"
   inkscape:export-filename="Logo.png"
   inkscape:export-xdpi="96"
   inkscape:export-ydpi="96"
   xmlns:inkscape="http://www.inkscape.org/namespaces/inkscape"
   xmlns:sodipodi="http://sodipodi.sourceforge.net/DTD/sodipodi-0.dtd"
   xmlns="http://www.w3.org/2000/svg"
   xmlns:svg="http://www.w3.org/2000/svg">
  <sodipodi:namedview
     id="namedview7"
     pagecolor="#202020"
     bordercolor="#000000"
     borderopacity="0.25"
     inkscape:showpageshadow="2"
     inkscape:pageopacity="0"
     inkscape:pagecheckerboard="0"
     inkscape:deskcolor="#d1d1d1"
     inkscape:document-units="mm"
     showgrid="false"
     inkscape:zoom="0.73851712"
     inkscape:cx="803.63743"
     inkscape:cy="277.58328"
     inkscape:window-width="1920"
     inkscape:window-height="1009"
     inkscape:window-x="-8"
     inkscape:window-y="-8"
     inkscape:window-maximized="1"
     inkscape:current-layer="layer2" />
  <defs
     id="defs2" />
  <g
     inkscape:groupmode="layer"
     id="layer2"
     inkscape:label="Warstwa 2"
     style="fill:#202020;fill-opacity:1">
    <rect
       style="opacity:0.98;fill:#202020;fill-opacity:1;stroke-width:0.292116"
       id="rect3944"
       width="318.85403"
       height="131.4825"
       x="-10.74789"
       y="-8.9565744" />
  </g>
  <g
     inkscape:label="Warstwa 1"
     inkscape:groupmode="layer"
     id="layer1">
    <g
       id="g3191"
       transform="translate(-4.740103,-18.660425)">
      <path
         id="circle1203"
         style="opacity:0.98;fill:#ffcc00;stroke-width:0.377357"
         d="m 45.857821,42.99138 a 31.16894,31.16894 0 0 0 -3.633592,0.234188 l -1.67756,4.495187 a 26.982067,26.982067 0 0 0 -8.93837,3.52992 L 27.320123,49.13024 a 31.16894,31.16894 0 0 0 -5.913731,5.708398 l 2.006025,4.394534 a 26.982067,26.982067 0 0 0 -3.801014,8.793764 l -4.581749,1.54973 a 31.16894,31.16894 0 0 0 -0.34088,4.583762 31.16894,31.16894 0 0 0 0.234187,3.633593 l 4.495188,1.677559 a 26.982067,26.982067 0 0 0 3.529919,8.938035 l -2.120434,4.288175 a 31.16894,31.16894 0 0 0 5.708398,5.91407 l 4.394534,-2.006023 a 26.982067,26.982067 0 0 0 8.793429,3.800673 l 1.549728,4.58174 a 31.16894,31.16894 0 0 0 4.584098,0.34122 31.16894,31.16894 0 0 0 3.633258,-0.23419 l 1.677559,-4.49517 a 26.982067,26.982067 0 0 0 8.938706,-3.529926 l 4.287833,2.120435 a 31.16894,31.16894 0 0 0 5.913737,-5.708399 l -2.00603,-4.394536 a 26.982067,26.982067 0 0 0 3.80101,-8.793765 l 4.58175,-1.549728 a 31.16894,31.16894 0 0 0 0.34089,-4.583763 31.16894,31.16894 0 0 0 -0.21406,-3.626212 l -4.50157,-1.679907 a 26.982067,26.982067 0 0 0 -3.54401,-8.942732 l 2.13084,-4.308978 a 31.16894,31.16894 0 0 0 -5.713757,-5.895614 l -4.374072,1.996631 A 26.982067,26.982067 0 0 0 51.981248,47.884149 L 50.441584,43.332596 A 31.16894,31.16894 0 0 0 45.857821,42.99138 Z" />
      <text
         xml:space="preserve"
         style="font-style:normal;font-variant:normal;font-weight:normal;font-stretch:normal;font-size:25.4px;font-family:'JetBrains Mono';-inkscape-font-specification:'JetBrains Mono';fill:#ffffff;stroke-width:0.264583"
         x="84.90831"
         y="83.637802"
         id="text180"><tspan
           sodipodi:role="line"
           id="tspan178"
           style="font-style:normal;font-variant:normal;font-weight:normal;font-stretch:normal;font-size:25.4px;font-family:'JetBrains Mono';-inkscape-font-specification:'JetBrains Mono';stroke-width:0.264583"
           x="84.90831"
           y="83.637802"><tspan
             style="font-size:31.75px;fill:#ffcc00"
             id="tspan3075">Point</tspan><tspan
             style="font-size:31.75px"
             id="tspan3183">Engine</tspan></tspan></text>
      <circle
         style="opacity:0.98;fill:#202020;fill-opacity:1;stroke-width:0.208391"
         id="path1201"
         cx="45.857655"
         cy="74.160423"
         r="17.212698" />
    </g>
    <path
       style="opacity:0.98;fill:#000000;fill-opacity:0;stroke-width:1.35406"
       d="m 777.23317,540.20954 c -30.57947,-4.23564 -55.24649,-24.60791 -66.74885,-55.12728 -2.91785,-7.74197 -3.45728,-11.49369 -3.55146,-24.70024 -0.12242,-17.1651 1.38318,-24.421 7.72661,-37.23678 9.67871,-19.55412 26.3904,-34.43315 46.43312,-41.3411 43.70512,-15.06347 88.58792,7.28561 105.05117,52.30948 4.04692,11.06757 4.37589,36.96151 0.60896,47.93343 -13.72219,39.96871 -50.12353,63.61933 -89.51955,58.16249 z"
       id="path1495"
       transform="scale(0.26458333)" />
    <path
       style="opacity:0.98;fill:#000000;fill-opacity:0;stroke-width:1.35406"
       d="m 777.23317,540.20954 c -30.57947,-4.23564 -55.24649,-24.60791 -66.74885,-55.12728 -2.91785,-7.74197 -3.45728,-11.49369 -3.55146,-24.70024 -0.12242,-17.1651 1.38318,-24.421 7.72661,-37.23678 9.67871,-19.55412 26.3904,-34.43315 46.43312,-41.3411 43.70512,-15.06347 88.58792,7.28561 105.05117,52.30948 4.04692,11.06757 4.37589,36.96151 0.60896,47.93343 -13.72219,39.96871 -50.12353,63.61933 -89.51955,58.16249 z"
       id="path1497"
       transform="scale(0.26458333)" />
    <path
       style="opacity:0.98;fill:#000000;fill-opacity:0;stroke-width:1.35406"
       d="m 777.23317,540.20954 c -30.57947,-4.23564 -55.24649,-24.60791 -66.74885,-55.12728 -2.91785,-7.74197 -3.45728,-11.49369 -3.55146,-24.70024 -0.12242,-17.1651 1.38318,-24.421 7.72661,-37.23678 9.67871,-19.55412 26.3904,-34.43315 46.43312,-41.3411 43.70512,-15.06347 88.58792,7.28561 105.05117,52.30948 4.04692,11.06757 4.37589,36.96151 0.60896,47.93343 -13.72219,39.96871 -50.12353,63.61933 -89.51955,58.16249 z"
       id="path1499"
       transform="scale(0.26458333)" />
    <path
       style="opacity:0.98;fill:#000000;fill-opacity:0;stroke-width:1.35406"
       d="m 777.23317,540.20954 c -30.57947,-4.23564 -55.24649,-24.60791 -66.74885,-55.12728 -2.91785,-7.74197 -3.45728,-11.49369 -3.55146,-24.70024 -0.12242,-17.1651 1.38318,-24.421 7.72661,-37.23678 9.67871,-19.55412 26.3904,-34.43315 46.43312,-41.3411 43.70512,-15.06347 88.58792,7.28561 105.05117,52.30948 4.04692,11.06757 4.37589,36.96151 0.60896,47.93343 -13.72219,39.96871 -50.12353,63.61933 -89.51955,58.16249 z"
       id="path1501"
       transform="scale(0.26458333)" />
    <path
       style="opacity:0.98;fill:#000000;fill-opacity:0;stroke-width:1.35406"
       d="m 777.23317,540.20954 c -30.57947,-4.23564 -55.24649,-24.60791 -66.74885,-55.12728 -2.91785,-7.74197 -3.45728,-11.49369 -3.55146,-24.70024 -0.12242,-17.1651 1.38318,-24.421 7.72661,-37.23678 9.67871,-19.55412 26.3904,-34.43315 46.43312,-41.3411 43.70512,-15.06347 88.58792,7.28561 105.05117,52.30948 4.04692,11.06757 4.37589,36.96151 0.60896,47.93343 -13.72219,39.96871 -50.12353,63.61933 -89.51955,58.16249 z"
       id="path1503"
       transform="scale(0.26458333)" />
  </g>
</svg>
